<mxfile host="app.diagrams.net" modified="2022-08-02T11:30:06.096Z" agent="5.0 (X11; Linux x86_64) AppleWebKit/537.36 (KHTML, like Gecko) Chrome/103.0.0.0 Safari/537.36" etag="faZUMerjgHeSwSfsTZvm" version="20.2.2" type="github">
  <diagram id="C5RBs43oDa-KdzZeNtuy" name="Page-1">
    <mxGraphModel dx="2150" dy="822" grid="1" gridSize="10" guides="1" tooltips="1" connect="1" arrows="1" fold="1" page="1" pageScale="1" pageWidth="827" pageHeight="1169" math="0" shadow="0">
      <root>
        <mxCell id="WIyWlLk6GJQsqaUBKTNV-0" />
        <mxCell id="WIyWlLk6GJQsqaUBKTNV-1" parent="WIyWlLk6GJQsqaUBKTNV-0" />
        <mxCell id="WIyWlLk6GJQsqaUBKTNV-2" value="" style="rounded=0;html=1;jettySize=auto;orthogonalLoop=1;fontSize=11;endArrow=block;endFill=0;endSize=8;strokeWidth=1;shadow=0;labelBackgroundColor=none;edgeStyle=orthogonalEdgeStyle;" parent="WIyWlLk6GJQsqaUBKTNV-1" source="WIyWlLk6GJQsqaUBKTNV-3" target="WIyWlLk6GJQsqaUBKTNV-6" edge="1">
          <mxGeometry relative="1" as="geometry" />
        </mxCell>
        <mxCell id="WIyWlLk6GJQsqaUBKTNV-3" value="User" style="rounded=1;whiteSpace=wrap;html=1;fontSize=12;glass=0;strokeWidth=1;shadow=0;" parent="WIyWlLk6GJQsqaUBKTNV-1" vertex="1">
          <mxGeometry x="160" y="80" width="120" height="40" as="geometry" />
        </mxCell>
        <mxCell id="WIyWlLk6GJQsqaUBKTNV-4" value="Yes" style="rounded=0;html=1;jettySize=auto;orthogonalLoop=1;fontSize=11;endArrow=block;endFill=0;endSize=8;strokeWidth=1;shadow=0;labelBackgroundColor=none;edgeStyle=orthogonalEdgeStyle;" parent="WIyWlLk6GJQsqaUBKTNV-1" source="WIyWlLk6GJQsqaUBKTNV-6" edge="1">
          <mxGeometry y="20" relative="1" as="geometry">
            <mxPoint as="offset" />
            <mxPoint x="220" y="290" as="targetPoint" />
          </mxGeometry>
        </mxCell>
        <mxCell id="WIyWlLk6GJQsqaUBKTNV-5" value="No" style="edgeStyle=orthogonalEdgeStyle;rounded=0;html=1;jettySize=auto;orthogonalLoop=1;fontSize=11;endArrow=block;endFill=0;endSize=8;strokeWidth=1;shadow=0;labelBackgroundColor=none;" parent="WIyWlLk6GJQsqaUBKTNV-1" source="WIyWlLk6GJQsqaUBKTNV-6" target="WIyWlLk6GJQsqaUBKTNV-7" edge="1">
          <mxGeometry y="10" relative="1" as="geometry">
            <mxPoint as="offset" />
          </mxGeometry>
        </mxCell>
        <mxCell id="WIyWlLk6GJQsqaUBKTNV-6" value="Login" style="rhombus;whiteSpace=wrap;html=1;shadow=0;fontFamily=Helvetica;fontSize=12;align=center;strokeWidth=1;spacing=6;spacingTop=-4;" parent="WIyWlLk6GJQsqaUBKTNV-1" vertex="1">
          <mxGeometry x="170" y="170" width="100" height="80" as="geometry" />
        </mxCell>
        <mxCell id="YYIbYqcjlhjMH0uN9NNn-25" style="edgeStyle=orthogonalEdgeStyle;rounded=0;orthogonalLoop=1;jettySize=auto;html=1;entryX=1;entryY=0.5;entryDx=0;entryDy=0;" edge="1" parent="WIyWlLk6GJQsqaUBKTNV-1" source="WIyWlLk6GJQsqaUBKTNV-7" target="YYIbYqcjlhjMH0uN9NNn-2">
          <mxGeometry relative="1" as="geometry">
            <mxPoint x="480" y="320" as="targetPoint" />
            <Array as="points">
              <mxPoint x="380" y="320" />
            </Array>
          </mxGeometry>
        </mxCell>
        <mxCell id="WIyWlLk6GJQsqaUBKTNV-7" value="Register" style="rounded=1;whiteSpace=wrap;html=1;fontSize=12;glass=0;strokeWidth=1;shadow=0;" parent="WIyWlLk6GJQsqaUBKTNV-1" vertex="1">
          <mxGeometry x="320" y="190" width="120" height="40" as="geometry" />
        </mxCell>
        <mxCell id="YYIbYqcjlhjMH0uN9NNn-9" value="" style="edgeStyle=orthogonalEdgeStyle;rounded=0;orthogonalLoop=1;jettySize=auto;html=1;" edge="1" parent="WIyWlLk6GJQsqaUBKTNV-1" target="YYIbYqcjlhjMH0uN9NNn-8">
          <mxGeometry relative="1" as="geometry">
            <mxPoint x="220" y="530" as="sourcePoint" />
          </mxGeometry>
        </mxCell>
        <mxCell id="YYIbYqcjlhjMH0uN9NNn-3" value="" style="edgeStyle=orthogonalEdgeStyle;rounded=0;orthogonalLoop=1;jettySize=auto;html=1;" edge="1" parent="WIyWlLk6GJQsqaUBKTNV-1" source="YYIbYqcjlhjMH0uN9NNn-2">
          <mxGeometry relative="1" as="geometry">
            <mxPoint x="214.99999999999955" y="470" as="targetPoint" />
            <Array as="points">
              <mxPoint x="215" y="400" />
              <mxPoint x="215" y="400" />
            </Array>
          </mxGeometry>
        </mxCell>
        <mxCell id="YYIbYqcjlhjMH0uN9NNn-15" style="edgeStyle=orthogonalEdgeStyle;rounded=0;orthogonalLoop=1;jettySize=auto;html=1;entryX=0.5;entryY=0;entryDx=0;entryDy=0;" edge="1" parent="WIyWlLk6GJQsqaUBKTNV-1" source="YYIbYqcjlhjMH0uN9NNn-2" target="YYIbYqcjlhjMH0uN9NNn-4">
          <mxGeometry relative="1" as="geometry">
            <Array as="points">
              <mxPoint x="215" y="400" />
              <mxPoint x="20" y="400" />
            </Array>
          </mxGeometry>
        </mxCell>
        <mxCell id="YYIbYqcjlhjMH0uN9NNn-24" style="edgeStyle=orthogonalEdgeStyle;rounded=0;orthogonalLoop=1;jettySize=auto;html=1;" edge="1" parent="WIyWlLk6GJQsqaUBKTNV-1" source="YYIbYqcjlhjMH0uN9NNn-2" target="YYIbYqcjlhjMH0uN9NNn-18">
          <mxGeometry relative="1" as="geometry">
            <Array as="points">
              <mxPoint x="215" y="400" />
              <mxPoint x="620" y="400" />
            </Array>
          </mxGeometry>
        </mxCell>
        <mxCell id="YYIbYqcjlhjMH0uN9NNn-26" style="edgeStyle=orthogonalEdgeStyle;rounded=0;orthogonalLoop=1;jettySize=auto;html=1;" edge="1" parent="WIyWlLk6GJQsqaUBKTNV-1" source="YYIbYqcjlhjMH0uN9NNn-2" target="YYIbYqcjlhjMH0uN9NNn-6">
          <mxGeometry relative="1" as="geometry">
            <Array as="points">
              <mxPoint x="215" y="400" />
              <mxPoint x="420" y="400" />
            </Array>
          </mxGeometry>
        </mxCell>
        <mxCell id="YYIbYqcjlhjMH0uN9NNn-2" value="Dashboard" style="rounded=1;whiteSpace=wrap;html=1;" vertex="1" parent="WIyWlLk6GJQsqaUBKTNV-1">
          <mxGeometry x="150" y="290" width="130" height="60" as="geometry" />
        </mxCell>
        <mxCell id="YYIbYqcjlhjMH0uN9NNn-11" value="" style="edgeStyle=orthogonalEdgeStyle;rounded=0;orthogonalLoop=1;jettySize=auto;html=1;" edge="1" parent="WIyWlLk6GJQsqaUBKTNV-1" source="YYIbYqcjlhjMH0uN9NNn-4" target="YYIbYqcjlhjMH0uN9NNn-10">
          <mxGeometry relative="1" as="geometry" />
        </mxCell>
        <mxCell id="YYIbYqcjlhjMH0uN9NNn-39" value="" style="edgeStyle=orthogonalEdgeStyle;rounded=0;orthogonalLoop=1;jettySize=auto;html=1;" edge="1" parent="WIyWlLk6GJQsqaUBKTNV-1" source="YYIbYqcjlhjMH0uN9NNn-4" target="YYIbYqcjlhjMH0uN9NNn-38">
          <mxGeometry relative="1" as="geometry" />
        </mxCell>
        <mxCell id="YYIbYqcjlhjMH0uN9NNn-4" value="Recipes List" style="rounded=1;whiteSpace=wrap;html=1;glass=0;strokeWidth=1;shadow=0;" vertex="1" parent="WIyWlLk6GJQsqaUBKTNV-1">
          <mxGeometry x="-40" y="470" width="120" height="60" as="geometry" />
        </mxCell>
        <mxCell id="YYIbYqcjlhjMH0uN9NNn-28" value="" style="edgeStyle=orthogonalEdgeStyle;rounded=0;orthogonalLoop=1;jettySize=auto;html=1;" edge="1" parent="WIyWlLk6GJQsqaUBKTNV-1" source="YYIbYqcjlhjMH0uN9NNn-6">
          <mxGeometry relative="1" as="geometry">
            <mxPoint x="420" y="580" as="targetPoint" />
          </mxGeometry>
        </mxCell>
        <mxCell id="YYIbYqcjlhjMH0uN9NNn-6" value="Bookmark&amp;nbsp;" style="whiteSpace=wrap;html=1;rounded=1;glass=0;strokeWidth=1;shadow=0;" vertex="1" parent="WIyWlLk6GJQsqaUBKTNV-1">
          <mxGeometry x="360" y="470" width="120" height="60" as="geometry" />
        </mxCell>
        <mxCell id="YYIbYqcjlhjMH0uN9NNn-12" value="" style="edgeStyle=orthogonalEdgeStyle;rounded=0;orthogonalLoop=1;jettySize=auto;html=1;" edge="1" parent="WIyWlLk6GJQsqaUBKTNV-1" source="YYIbYqcjlhjMH0uN9NNn-8" target="YYIbYqcjlhjMH0uN9NNn-10">
          <mxGeometry relative="1" as="geometry" />
        </mxCell>
        <mxCell id="YYIbYqcjlhjMH0uN9NNn-8" value="Recipes List By Category" style="whiteSpace=wrap;html=1;rounded=1;glass=0;strokeWidth=1;shadow=0;" vertex="1" parent="WIyWlLk6GJQsqaUBKTNV-1">
          <mxGeometry x="160" y="580" width="120" height="60" as="geometry" />
        </mxCell>
        <mxCell id="YYIbYqcjlhjMH0uN9NNn-14" value="" style="edgeStyle=orthogonalEdgeStyle;rounded=0;orthogonalLoop=1;jettySize=auto;html=1;" edge="1" parent="WIyWlLk6GJQsqaUBKTNV-1" source="YYIbYqcjlhjMH0uN9NNn-10" target="YYIbYqcjlhjMH0uN9NNn-13">
          <mxGeometry relative="1" as="geometry" />
        </mxCell>
        <mxCell id="YYIbYqcjlhjMH0uN9NNn-46" value="" style="edgeStyle=orthogonalEdgeStyle;rounded=0;orthogonalLoop=1;jettySize=auto;html=1;" edge="1" parent="WIyWlLk6GJQsqaUBKTNV-1" source="YYIbYqcjlhjMH0uN9NNn-10" target="YYIbYqcjlhjMH0uN9NNn-45">
          <mxGeometry relative="1" as="geometry" />
        </mxCell>
        <mxCell id="YYIbYqcjlhjMH0uN9NNn-10" value="Recipes Detail Screen" style="rounded=1;whiteSpace=wrap;html=1;glass=0;strokeWidth=1;shadow=0;" vertex="1" parent="WIyWlLk6GJQsqaUBKTNV-1">
          <mxGeometry x="-40" y="580" width="120" height="60" as="geometry" />
        </mxCell>
        <mxCell id="YYIbYqcjlhjMH0uN9NNn-66" style="edgeStyle=orthogonalEdgeStyle;rounded=0;orthogonalLoop=1;jettySize=auto;html=1;entryX=0.5;entryY=1;entryDx=0;entryDy=0;" edge="1" parent="WIyWlLk6GJQsqaUBKTNV-1" source="YYIbYqcjlhjMH0uN9NNn-13" target="YYIbYqcjlhjMH0uN9NNn-45">
          <mxGeometry relative="1" as="geometry" />
        </mxCell>
        <mxCell id="YYIbYqcjlhjMH0uN9NNn-13" value="Ingredients Detail&lt;br&gt;Screen" style="rounded=1;whiteSpace=wrap;html=1;glass=0;strokeWidth=1;shadow=0;" vertex="1" parent="WIyWlLk6GJQsqaUBKTNV-1">
          <mxGeometry x="-40" y="700" width="120" height="60" as="geometry" />
        </mxCell>
        <mxCell id="YYIbYqcjlhjMH0uN9NNn-52" value="" style="edgeStyle=orthogonalEdgeStyle;rounded=0;orthogonalLoop=1;jettySize=auto;html=1;" edge="1" parent="WIyWlLk6GJQsqaUBKTNV-1" source="YYIbYqcjlhjMH0uN9NNn-18" target="YYIbYqcjlhjMH0uN9NNn-51">
          <mxGeometry relative="1" as="geometry" />
        </mxCell>
        <mxCell id="YYIbYqcjlhjMH0uN9NNn-54" value="" style="edgeStyle=orthogonalEdgeStyle;rounded=0;orthogonalLoop=1;jettySize=auto;html=1;" edge="1" parent="WIyWlLk6GJQsqaUBKTNV-1" source="YYIbYqcjlhjMH0uN9NNn-18">
          <mxGeometry relative="1" as="geometry">
            <mxPoint x="620" y="610" as="targetPoint" />
          </mxGeometry>
        </mxCell>
        <mxCell id="YYIbYqcjlhjMH0uN9NNn-56" value="" style="edgeStyle=orthogonalEdgeStyle;rounded=0;orthogonalLoop=1;jettySize=auto;html=1;" edge="1" parent="WIyWlLk6GJQsqaUBKTNV-1" source="YYIbYqcjlhjMH0uN9NNn-18" target="YYIbYqcjlhjMH0uN9NNn-55">
          <mxGeometry relative="1" as="geometry" />
        </mxCell>
        <mxCell id="YYIbYqcjlhjMH0uN9NNn-18" value="Profile" style="rounded=1;whiteSpace=wrap;html=1;" vertex="1" parent="WIyWlLk6GJQsqaUBKTNV-1">
          <mxGeometry x="560" y="470" width="120" height="60" as="geometry" />
        </mxCell>
        <mxCell id="YYIbYqcjlhjMH0uN9NNn-35" value="" style="edgeStyle=orthogonalEdgeStyle;rounded=0;orthogonalLoop=1;jettySize=auto;html=1;" edge="1" parent="WIyWlLk6GJQsqaUBKTNV-1" source="YYIbYqcjlhjMH0uN9NNn-29" target="YYIbYqcjlhjMH0uN9NNn-34">
          <mxGeometry relative="1" as="geometry" />
        </mxCell>
        <mxCell id="YYIbYqcjlhjMH0uN9NNn-57" value="" style="edgeStyle=orthogonalEdgeStyle;rounded=0;orthogonalLoop=1;jettySize=auto;html=1;" edge="1" parent="WIyWlLk6GJQsqaUBKTNV-1" source="YYIbYqcjlhjMH0uN9NNn-29" target="YYIbYqcjlhjMH0uN9NNn-55">
          <mxGeometry relative="1" as="geometry" />
        </mxCell>
        <mxCell id="YYIbYqcjlhjMH0uN9NNn-29" value="Bookmark&amp;nbsp;&lt;br&gt;List" style="rhombus;whiteSpace=wrap;html=1;" vertex="1" parent="WIyWlLk6GJQsqaUBKTNV-1">
          <mxGeometry x="360" y="580" width="120" height="100" as="geometry" />
        </mxCell>
        <mxCell id="YYIbYqcjlhjMH0uN9NNn-34" value="Unmark Recipes" style="rounded=1;whiteSpace=wrap;html=1;" vertex="1" parent="WIyWlLk6GJQsqaUBKTNV-1">
          <mxGeometry x="360" y="730" width="120" height="60" as="geometry" />
        </mxCell>
        <mxCell id="YYIbYqcjlhjMH0uN9NNn-37" value="Home/Category" style="rounded=1;whiteSpace=wrap;html=1;fontSize=12;glass=0;strokeWidth=1;shadow=0;" vertex="1" parent="WIyWlLk6GJQsqaUBKTNV-1">
          <mxGeometry x="160" y="470" width="120" height="60" as="geometry" />
        </mxCell>
        <mxCell id="YYIbYqcjlhjMH0uN9NNn-44" style="edgeStyle=orthogonalEdgeStyle;rounded=0;orthogonalLoop=1;jettySize=auto;html=1;entryX=1;entryY=0.5;entryDx=0;entryDy=0;entryPerimeter=0;" edge="1" parent="WIyWlLk6GJQsqaUBKTNV-1" source="YYIbYqcjlhjMH0uN9NNn-38" target="YYIbYqcjlhjMH0uN9NNn-42">
          <mxGeometry relative="1" as="geometry" />
        </mxCell>
        <mxCell id="YYIbYqcjlhjMH0uN9NNn-38" value="Create" style="rounded=1;whiteSpace=wrap;html=1;glass=0;strokeWidth=1;shadow=0;" vertex="1" parent="WIyWlLk6GJQsqaUBKTNV-1">
          <mxGeometry x="-240" y="470" width="120" height="60" as="geometry" />
        </mxCell>
        <mxCell id="YYIbYqcjlhjMH0uN9NNn-42" value="save recipes by user Id" style="shape=cylinder3;whiteSpace=wrap;html=1;boundedLbl=1;backgroundOutline=1;size=15;" vertex="1" parent="WIyWlLk6GJQsqaUBKTNV-1">
          <mxGeometry x="-390" y="450" width="60" height="100" as="geometry" />
        </mxCell>
        <mxCell id="YYIbYqcjlhjMH0uN9NNn-48" style="edgeStyle=orthogonalEdgeStyle;rounded=0;orthogonalLoop=1;jettySize=auto;html=1;entryX=1;entryY=0.5;entryDx=0;entryDy=0;entryPerimeter=0;" edge="1" parent="WIyWlLk6GJQsqaUBKTNV-1" source="YYIbYqcjlhjMH0uN9NNn-45" target="YYIbYqcjlhjMH0uN9NNn-47">
          <mxGeometry relative="1" as="geometry" />
        </mxCell>
        <mxCell id="YYIbYqcjlhjMH0uN9NNn-45" value="Edit" style="rounded=1;whiteSpace=wrap;html=1;glass=0;strokeWidth=1;shadow=0;" vertex="1" parent="WIyWlLk6GJQsqaUBKTNV-1">
          <mxGeometry x="-240" y="580" width="120" height="60" as="geometry" />
        </mxCell>
        <mxCell id="YYIbYqcjlhjMH0uN9NNn-47" value="pdate recipes by user id" style="shape=cylinder3;whiteSpace=wrap;html=1;boundedLbl=1;backgroundOutline=1;size=15;" vertex="1" parent="WIyWlLk6GJQsqaUBKTNV-1">
          <mxGeometry x="-390" y="560" width="60" height="100" as="geometry" />
        </mxCell>
        <mxCell id="YYIbYqcjlhjMH0uN9NNn-50" value="No" style="text;html=1;align=center;verticalAlign=middle;resizable=0;points=[];autosize=1;strokeColor=none;fillColor=none;" vertex="1" parent="WIyWlLk6GJQsqaUBKTNV-1">
          <mxGeometry x="410" y="685" width="40" height="30" as="geometry" />
        </mxCell>
        <mxCell id="YYIbYqcjlhjMH0uN9NNn-63" value="" style="edgeStyle=orthogonalEdgeStyle;rounded=0;orthogonalLoop=1;jettySize=auto;html=1;" edge="1" parent="WIyWlLk6GJQsqaUBKTNV-1" source="YYIbYqcjlhjMH0uN9NNn-51" target="YYIbYqcjlhjMH0uN9NNn-62">
          <mxGeometry relative="1" as="geometry" />
        </mxCell>
        <mxCell id="YYIbYqcjlhjMH0uN9NNn-51" value="Your Recipes List" style="whiteSpace=wrap;html=1;rounded=1;" vertex="1" parent="WIyWlLk6GJQsqaUBKTNV-1">
          <mxGeometry x="760" y="470" width="120" height="60" as="geometry" />
        </mxCell>
        <mxCell id="YYIbYqcjlhjMH0uN9NNn-61" value="" style="edgeStyle=orthogonalEdgeStyle;rounded=0;orthogonalLoop=1;jettySize=auto;html=1;" edge="1" parent="WIyWlLk6GJQsqaUBKTNV-1" source="YYIbYqcjlhjMH0uN9NNn-55">
          <mxGeometry relative="1" as="geometry">
            <mxPoint x="760" y="630" as="targetPoint" />
          </mxGeometry>
        </mxCell>
        <mxCell id="YYIbYqcjlhjMH0uN9NNn-55" value="Complete Recipes List" style="whiteSpace=wrap;html=1;rounded=1;" vertex="1" parent="WIyWlLk6GJQsqaUBKTNV-1">
          <mxGeometry x="560" y="600" width="120" height="60" as="geometry" />
        </mxCell>
        <mxCell id="YYIbYqcjlhjMH0uN9NNn-58" value="Yes" style="text;html=1;align=center;verticalAlign=middle;resizable=0;points=[];autosize=1;strokeColor=none;fillColor=none;" vertex="1" parent="WIyWlLk6GJQsqaUBKTNV-1">
          <mxGeometry x="490" y="605" width="40" height="30" as="geometry" />
        </mxCell>
        <mxCell id="YYIbYqcjlhjMH0uN9NNn-65" value="" style="edgeStyle=orthogonalEdgeStyle;rounded=0;orthogonalLoop=1;jettySize=auto;html=1;" edge="1" parent="WIyWlLk6GJQsqaUBKTNV-1" source="YYIbYqcjlhjMH0uN9NNn-62" target="YYIbYqcjlhjMH0uN9NNn-64">
          <mxGeometry relative="1" as="geometry" />
        </mxCell>
        <mxCell id="YYIbYqcjlhjMH0uN9NNn-62" value="Delete" style="rhombus;whiteSpace=wrap;html=1;" vertex="1" parent="WIyWlLk6GJQsqaUBKTNV-1">
          <mxGeometry x="760" y="580" width="120" height="105" as="geometry" />
        </mxCell>
        <mxCell id="YYIbYqcjlhjMH0uN9NNn-64" value="Delete Recipes by uid" style="shape=cylinder3;whiteSpace=wrap;html=1;boundedLbl=1;backgroundOutline=1;size=15;" vertex="1" parent="WIyWlLk6GJQsqaUBKTNV-1">
          <mxGeometry x="960" y="588.75" width="60" height="87.5" as="geometry" />
        </mxCell>
      </root>
    </mxGraphModel>
  </diagram>
</mxfile>
